<?xml version="1.0" encoding="UTF-8"?>
<svg width="2059px" height="666px" viewBox="0 0 2059 666" version="1.1" xmlns="http://www.w3.org/2000/svg" xmlns:xlink="http://www.w3.org/1999/xlink">
    <!-- Generator: Sketch 55.2 (78181) - https://sketchapp.com -->
    <title>t</title>
    <desc>Created with Sketch.</desc>
    <g id="t" stroke="none" stroke-width="1" fill="none" fill-rule="evenodd">
        <text id="Piknwash" font-family="ArialRoundedMTBold, Arial Rounded MT Bold" font-size="300" font-weight="normal">
            <tspan x="626" y="445" fill="#6B76FF">Pikn</tspan>
            <tspan x="1260.57031" y="445" fill="#6BAFFF">wash</tspan>
            <tspan x="2022.58203" y="445" fill="#6B76FF"></tspan>
        </text>
        <g id="Group" transform="translate(45.000000, 51.000000)" fill="#6B76FF">
            <path d="M501.428518,326.129154 C472.101206,312.567118 439.434301,305 405,305 C386.865171,305 369.220548,307.098818 352.295784,311.066801 C344.959111,310.361062 337.521721,310 330,310 C209.491421,310 110.629309,402.679542 100.80246,520.64983 C100.531119,521.043084 100.395448,521.460739 100.395448,521.902795 C100.395448,544.184962 92.8120218,563.662786 69.6074997,563.662786 C58.3091283,563.662786 42.88592,563.011519 23.337875,561.708984 C10.2050714,560.833914 1.61187097e-15,549.926224 0,536.764299 L0,50 C-3.38176876e-15,22.3857625 22.3857625,5.07265313e-15 50,0 L510,0 C537.614237,2.03277422e-15 560,22.3857625 560,50 C560,118.86566 560,187.731321 560,256.596981 C560,281.596981 560,305 533.984338,320.022286 C521.738818,327.093247 510.342578,327.610822 501.428518,326.129154 Z M280,280 C335.228475,280 380,235.228475 380,180 C380,124.771525 335.228475,80 280,80 C224.771525,80 180,124.771525 180,180 C180,235.228475 224.771525,280 280,280 Z" id="Combined-Shape"></path>
            <path d="M216.843891,257.53664 C234.063136,271.579208 256.048177,280 280,280 C335.179795,280 379.921067,235.307365 379.999896,180.146014 C476.092624,183.032718 492.975357,228.777853 492.975357,322.224547 C492.975357,322.291414 492.975344,322.358302 492.975317,322.425212 C465.874271,311.196767 436.160802,305 405,305 C309.226984,305 227.126137,363.537514 192.524444,446.785558 C184.501435,424.76098 180,399.245046 180,370 C180,327.914233 193.683357,289.024386 216.843891,257.53664 Z" id="Combined-Shape"></path>
        </g>
    </g>
</svg>